<svg width="48" height="48" viewBox="0 0 48 48" fill="none" xmlns="http://www.w3.org/2000/svg">
  <rect x="4" y="4" width="40" height="40" rx="20" fill="#F72A72"/>
  <path d="M16.4783 31.3544C12.8783 27.7544 13.9783 23.8544 14.9783 22.3544L20.4783 16.3544L22.9783 17.8544L26.9783 14.3544L28.9783 15.3544H31.9783L32.4783 17.8544L33.4783 19.3544L32.4783 22.3544L33.4783 24.3544L25.4783 32.3544C23.9783 33.5211 20.0783 34.9544 16.4783 31.3544Z" fill="#FFCA31"/>
  <path d="M19.03 16.95L15.49 20.49C12.17 23.81 12.17 29.19 15.49 32.51C18.81 35.83 24.19 35.83 27.51 32.51L33.52 26.5C34.49 25.53 34.49 23.94 33.52 22.96C33.4 22.84 33.27 22.73 33.13 22.64L33.52 22.25C34.49 21.28 34.49 19.69 33.52 18.71C33.36 18.55 33.17 18.41 32.98 18.3C33.38 17.38 33.21 16.28 32.46 15.53C31.59 14.66 30.24 14.57 29.26 15.25C29.16 15.1 29.05 14.96 28.92 14.83C27.95 13.86 26.36 13.86 25.38 14.83L22.87 17.34C22.78 17.2 22.67 17.07 22.55 16.95C21.58 15.98 20 15.98 19.03 16.95ZM20.44 18.37C20.64 18.17 20.95 18.17 21.15 18.37C21.35 18.57 21.35 18.88 21.15 19.08L17.97 22.26C19.14 23.43 19.14 25.33 17.97 26.5L19.38 27.91C20.83 26.46 21.2 24.34 20.5 22.55L26.8 16.25C27 16.05 27.31 16.05 27.51 16.25C27.71 16.45 27.71 16.76 27.51 16.96L22.91 21.56L24.32 22.97L30.33 16.96C30.53 16.76 30.84 16.76 31.04 16.96C31.24 17.16 31.24 17.47 31.04 17.67L25.03 23.68L26.44 25.09L31.39 20.14C31.59 19.94 31.9 19.94 32.1 20.14C32.3 20.34 32.3 20.65 32.1 20.85L26.44 26.51L27.85 27.92L31.39 24.38C31.59 24.18 31.9 24.18 32.1 24.38C32.3 24.58 32.3 24.89 32.1 25.09L26.1 31.1C23.56 33.64 19.45 33.64 16.91 31.1C14.37 28.56 14.37 24.45 16.91 21.91L20.44 18.37ZM35 29C35 32.31 32.31 35 29 35V33.5C31.48 33.5 33.5 31.48 33.5 29H35ZM13 19C13 15.69 15.69 13 19 13V14.5C16.52 14.5 14.5 16.52 14.5 19H13Z" fill="#0D1C2B"/>
</svg>
